<svg width="15" height="16" viewBox="0 0 15 16" fill="none" xmlns="http://www.w3.org/2000/svg">
<path d="M12.2 7.29999H2.4C1.6268 7.29999 1 7.92679 1 8.69999V13.6C1 14.3732 1.6268 15 2.4 15H12.2C12.9732 15 13.6 14.3732 13.6 13.6V8.69999C13.6 7.92679 12.9732 7.29999 12.2 7.29999Z" stroke="#181818" stroke-opacity="0.6" stroke-linecap="round" stroke-linejoin="round"/>
<path d="M3.7998 7.3V4.5C3.7998 3.57174 4.16855 2.6815 4.82493 2.02513C5.48131 1.36875 6.37155 1 7.2998 1C8.22806 1 9.1183 1.36875 9.77468 2.02513C10.4311 2.6815 10.7998 3.57174 10.7998 4.5V7.3" stroke="#181818" stroke-opacity="0.6" stroke-linecap="round" stroke-linejoin="round"/>
</svg>
